<svg width="145" height="19" viewBox="0 0 145 19" fill="none" xmlns="http://www.w3.org/2000/svg">
<path d="M0.517045 18V0.545454H4.20739V7.74716H11.6989V0.545454H15.3807V18H11.6989V10.7898H4.20739V18H0.517045ZM22.8081 18.2472C21.9728 18.2472 21.2285 18.1023 20.5751 17.8125C19.9217 17.517 19.4047 17.0824 19.024 16.5085C18.649 15.929 18.4615 15.2074 18.4615 14.3438C18.4615 13.6165 18.595 13.0057 18.862 12.5114C19.1291 12.017 19.4927 11.6193 19.953 11.3182C20.4132 11.017 20.9359 10.7898 21.5211 10.6364C22.112 10.483 22.7314 10.375 23.3791 10.3125C24.1405 10.233 24.7541 10.1591 25.22 10.0909C25.6859 10.017 26.024 9.90909 26.2342 9.76705C26.4444 9.625 26.5495 9.41477 26.5495 9.13636V9.08523C26.5495 8.54545 26.3791 8.12784 26.0382 7.83239C25.703 7.53693 25.2257 7.3892 24.6064 7.3892C23.953 7.3892 23.4331 7.53409 23.0467 7.82386C22.6603 8.10795 22.4047 8.46591 22.2797 8.89773L18.9217 8.625C19.0922 7.82955 19.4274 7.14205 19.9274 6.5625C20.4274 5.97727 21.0723 5.52841 21.862 5.21591C22.6575 4.89773 23.578 4.73864 24.6234 4.73864C25.3507 4.73864 26.0467 4.82386 26.7115 4.99432C27.3819 5.16477 27.9757 5.42898 28.4927 5.78693C29.0155 6.14489 29.4274 6.60511 29.7285 7.16761C30.0297 7.72443 30.1802 8.39205 30.1802 9.17045V18H26.737V16.1847H26.6348C26.4245 16.5938 26.1433 16.9545 25.791 17.267C25.4387 17.5739 25.0155 17.8153 24.5211 17.9915C24.0268 18.1619 23.4558 18.2472 22.8081 18.2472ZM23.8478 15.7415C24.3819 15.7415 24.8535 15.6364 25.2626 15.4261C25.6717 15.2102 25.9927 14.9205 26.2257 14.5568C26.4586 14.1932 26.5751 13.7812 26.5751 13.321V11.9318C26.4615 12.0057 26.3052 12.0739 26.1064 12.1364C25.9132 12.1932 25.6944 12.2472 25.4501 12.2983C25.2058 12.3437 24.9615 12.3864 24.7172 12.4261C24.4728 12.4602 24.2512 12.4915 24.0524 12.5199C23.6262 12.5824 23.2541 12.6818 22.9359 12.8182C22.6177 12.9545 22.3706 13.1392 22.1944 13.3722C22.0183 13.5994 21.9302 13.8835 21.9302 14.2244C21.9302 14.7188 22.1092 15.0966 22.4672 15.358C22.8308 15.6136 23.291 15.7415 23.8478 15.7415ZM33.717 18V4.90909H37.1772V7.21875H37.3306C37.6034 6.4517 38.0579 5.84659 38.6943 5.40341C39.3306 4.96023 40.092 4.73864 40.9784 4.73864C41.8761 4.73864 42.6403 4.96307 43.271 5.41193C43.9016 5.85511 44.3221 6.45739 44.5323 7.21875H44.6687C44.9357 6.46875 45.4187 5.86932 46.1176 5.42045C46.8221 4.96591 47.6545 4.73864 48.6147 4.73864C49.8363 4.73864 50.8278 5.12784 51.5891 5.90625C52.3562 6.67898 52.7397 7.77557 52.7397 9.19602V18H49.1176V9.91193C49.1176 9.18466 48.9244 8.6392 48.538 8.27557C48.1516 7.91193 47.6687 7.73011 47.0891 7.73011C46.4301 7.73011 45.9159 7.94034 45.5465 8.3608C45.1772 8.77557 44.9926 9.32386 44.9926 10.0057V18H41.4727V9.83523C41.4727 9.19318 41.288 8.68182 40.9187 8.30114C40.5551 7.92045 40.0749 7.73011 39.4784 7.73011C39.0749 7.73011 38.7113 7.83239 38.3874 8.03693C38.0693 8.2358 37.8164 8.51705 37.6289 8.88068C37.4414 9.23864 37.3477 9.65909 37.3477 10.142V18H33.717ZM56.3276 18V4.90909H59.8475V7.19318H59.9839C60.2225 6.38068 60.6231 5.76705 61.1856 5.35227C61.7481 4.93182 62.3958 4.72159 63.1287 4.72159C63.3106 4.72159 63.5066 4.73295 63.7168 4.75568C63.927 4.77841 64.1117 4.80966 64.2708 4.84943V8.07102C64.1003 8.01989 63.8645 7.97443 63.5634 7.93466C63.2623 7.89489 62.9867 7.875 62.7367 7.875C62.2026 7.875 61.7253 7.99148 61.3049 8.22443C60.8901 8.4517 60.5606 8.76989 60.3162 9.17898C60.0776 9.58807 59.9583 10.0597 59.9583 10.5938V18H56.3276ZM72.1733 18.2557C70.8495 18.2557 69.7046 17.9744 68.7387 17.4119C67.7784 16.8437 67.037 16.054 66.5142 15.0426C65.9915 14.0256 65.7301 12.8466 65.7301 11.5057C65.7301 10.1534 65.9915 8.97159 66.5142 7.96023C67.037 6.94318 67.7784 6.15341 68.7387 5.59091C69.7046 5.02273 70.8495 4.73864 72.1733 4.73864C73.4972 4.73864 74.6392 5.02273 75.5995 5.59091C76.5654 6.15341 77.3097 6.94318 77.8324 7.96023C78.3551 8.97159 78.6165 10.1534 78.6165 11.5057C78.6165 12.8466 78.3551 14.0256 77.8324 15.0426C77.3097 16.054 76.5654 16.8437 75.5995 17.4119C74.6392 17.9744 73.4972 18.2557 72.1733 18.2557ZM72.1904 15.4432C72.7926 15.4432 73.2955 15.2727 73.6989 14.9318C74.1023 14.5852 74.4063 14.1136 74.6108 13.517C74.821 12.9205 74.9262 12.2415 74.9262 11.4801C74.9262 10.7188 74.821 10.0398 74.6108 9.44318C74.4063 8.84659 74.1023 8.375 73.6989 8.02841C73.2955 7.68182 72.7926 7.50852 72.1904 7.50852C71.5824 7.50852 71.071 7.68182 70.6563 8.02841C70.2472 8.375 69.9375 8.84659 69.7273 9.44318C69.5228 10.0398 69.4205 10.7188 69.4205 11.4801C69.4205 12.2415 69.5228 12.9205 69.7273 13.517C69.9375 14.1136 70.2472 14.5852 70.6563 14.9318C71.071 15.2727 71.5824 15.4432 72.1904 15.4432ZM81.7655 18V0.545454H88.6518C89.9757 0.545454 91.1035 0.798295 92.0354 1.30398C92.9672 1.80398 93.6774 2.5 94.166 3.39204C94.6604 4.27841 94.9075 5.30114 94.9075 6.46023C94.9075 7.61932 94.6575 8.64205 94.1575 9.52841C93.6575 10.4148 92.9331 11.1051 91.9842 11.5994C91.041 12.0937 89.899 12.3409 88.5581 12.3409H84.1689V9.38352H87.9615C88.6717 9.38352 89.257 9.26136 89.7172 9.01705C90.1831 8.76705 90.5297 8.4233 90.757 7.9858C90.9899 7.54261 91.1064 7.03409 91.1064 6.46023C91.1064 5.88068 90.9899 5.375 90.757 4.94318C90.5297 4.50568 90.1831 4.16761 89.7172 3.92898C89.2513 3.68466 88.6604 3.5625 87.9445 3.5625H85.4558V18H81.7655ZM101.338 18.2472C100.503 18.2472 99.7582 18.1023 99.1048 17.8125C98.4514 17.517 97.9343 17.0824 97.5537 16.5085C97.1787 15.929 96.9912 15.2074 96.9912 14.3438C96.9912 13.6165 97.1247 13.0057 97.3917 12.5114C97.6588 12.017 98.0224 11.6193 98.4826 11.3182C98.9429 11.017 99.4656 10.7898 100.051 10.6364C100.642 10.483 101.261 10.375 101.909 10.3125C102.67 10.233 103.284 10.1591 103.75 10.0909C104.216 10.017 104.554 9.90909 104.764 9.76705C104.974 9.625 105.079 9.41477 105.079 9.13636V9.08523C105.079 8.54545 104.909 8.12784 104.568 7.83239C104.233 7.53693 103.755 7.3892 103.136 7.3892C102.483 7.3892 101.963 7.53409 101.576 7.82386C101.19 8.10795 100.934 8.46591 100.809 8.89773L97.4514 8.625C97.6218 7.82955 97.9571 7.14205 98.4571 6.5625C98.9571 5.97727 99.602 5.52841 100.392 5.21591C101.187 4.89773 102.108 4.73864 103.153 4.73864C103.88 4.73864 104.576 4.82386 105.241 4.99432C105.912 5.16477 106.505 5.42898 107.022 5.78693C107.545 6.14489 107.957 6.60511 108.258 7.16761C108.559 7.72443 108.71 8.39205 108.71 9.17045V18H105.267V16.1847H105.164C104.954 16.5938 104.673 16.9545 104.321 17.267C103.968 17.5739 103.545 17.8153 103.051 17.9915C102.557 18.1619 101.985 18.2472 101.338 18.2472ZM102.378 15.7415C102.912 15.7415 103.383 15.6364 103.792 15.4261C104.201 15.2102 104.522 14.9205 104.755 14.5568C104.988 14.1932 105.105 13.7812 105.105 13.321V11.9318C104.991 12.0057 104.835 12.0739 104.636 12.1364C104.443 12.1932 104.224 12.2472 103.98 12.2983C103.735 12.3437 103.491 12.3864 103.247 12.4261C103.003 12.4602 102.781 12.4915 102.582 12.5199C102.156 12.5824 101.784 12.6818 101.466 12.8182C101.147 12.9545 100.9 13.1392 100.724 13.3722C100.548 13.5994 100.46 13.8835 100.46 14.2244C100.46 14.7188 100.639 15.0966 100.997 15.358C101.36 15.6136 101.821 15.7415 102.378 15.7415ZM123.139 8.64205L119.815 8.84659C119.758 8.5625 119.636 8.30682 119.448 8.07955C119.261 7.84659 119.014 7.66193 118.707 7.52557C118.406 7.38352 118.045 7.3125 117.625 7.3125C117.062 7.3125 116.588 7.43182 116.201 7.67045C115.815 7.90341 115.622 8.21591 115.622 8.60795C115.622 8.92045 115.747 9.18466 115.997 9.40057C116.247 9.61648 116.676 9.78977 117.284 9.92045L119.653 10.3977C120.926 10.6591 121.875 11.0795 122.5 11.6591C123.125 12.2386 123.437 13 123.437 13.9432C123.437 14.8011 123.184 15.554 122.678 16.2017C122.178 16.8494 121.491 17.3551 120.616 17.7188C119.747 18.0767 118.744 18.2557 117.607 18.2557C115.875 18.2557 114.494 17.8949 113.465 17.1733C112.443 16.446 111.843 15.4574 111.667 14.2074L115.238 14.0199C115.346 14.5483 115.607 14.9517 116.022 15.2301C116.437 15.5028 116.968 15.6392 117.616 15.6392C118.252 15.6392 118.764 15.517 119.15 15.2727C119.542 15.0227 119.741 14.7017 119.747 14.3097C119.741 13.9801 119.602 13.7102 119.329 13.5C119.056 13.2841 118.636 13.1193 118.068 13.0057L115.801 12.554C114.522 12.2983 113.571 11.8551 112.946 11.2244C112.326 10.5937 112.017 9.78977 112.017 8.8125C112.017 7.97159 112.244 7.24716 112.698 6.6392C113.159 6.03125 113.803 5.5625 114.633 5.23295C115.468 4.90341 116.446 4.73864 117.565 4.73864C119.218 4.73864 120.519 5.08807 121.468 5.78693C122.423 6.4858 122.98 7.4375 123.139 8.64205ZM130.176 18.2472C129.341 18.2472 128.597 18.1023 127.943 17.8125C127.29 17.517 126.773 17.0824 126.392 16.5085C126.017 15.929 125.83 15.2074 125.83 14.3438C125.83 13.6165 125.963 13.0057 126.23 12.5114C126.497 12.017 126.861 11.6193 127.321 11.3182C127.781 11.017 128.304 10.7898 128.889 10.6364C129.48 10.483 130.099 10.375 130.747 10.3125C131.509 10.233 132.122 10.1591 132.588 10.0909C133.054 10.017 133.392 9.90909 133.602 9.76705C133.813 9.625 133.918 9.41477 133.918 9.13636V9.08523C133.918 8.54545 133.747 8.12784 133.406 7.83239C133.071 7.53693 132.594 7.3892 131.974 7.3892C131.321 7.3892 130.801 7.53409 130.415 7.82386C130.028 8.10795 129.773 8.46591 129.648 8.89773L126.29 8.625C126.46 7.82955 126.796 7.14205 127.296 6.5625C127.796 5.97727 128.44 5.52841 129.23 5.21591C130.026 4.89773 130.946 4.73864 131.992 4.73864C132.719 4.73864 133.415 4.82386 134.08 4.99432C134.75 5.16477 135.344 5.42898 135.861 5.78693C136.384 6.14489 136.796 6.60511 137.097 7.16761C137.398 7.72443 137.548 8.39205 137.548 9.17045V18H134.105V16.1847H134.003C133.793 16.5938 133.511 16.9545 133.159 17.267C132.807 17.5739 132.384 17.8153 131.889 17.9915C131.395 18.1619 130.824 18.2472 130.176 18.2472ZM131.216 15.7415C131.75 15.7415 132.222 15.6364 132.631 15.4261C133.04 15.2102 133.361 14.9205 133.594 14.5568C133.827 14.1932 133.943 13.7812 133.943 13.321V11.9318C133.83 12.0057 133.673 12.0739 133.474 12.1364C133.281 12.1932 133.063 12.2472 132.818 12.2983C132.574 12.3437 132.33 12.3864 132.085 12.4261C131.841 12.4602 131.619 12.4915 131.421 12.5199C130.994 12.5824 130.622 12.6818 130.304 12.8182C129.986 12.9545 129.739 13.1392 129.563 13.3722C129.386 13.5994 129.298 13.8835 129.298 14.2244C129.298 14.7188 129.477 15.0966 129.835 15.358C130.199 15.6136 130.659 15.7415 131.216 15.7415ZM144.716 0.545454V18H141.085V0.545454H144.716Z" fill="black"/>
</svg>
